G75*
%MOIN*%
%OFA0B0*%
%FSLAX24Y24*%
%IPPOS*%
%LPD*%
%AMOC8*
5,1,8,0,0,1.08239X$1,22.5*
%
%ADD10R,0.0237X0.0611*%
%ADD11R,0.0198X0.0631*%
%ADD12R,0.0513X0.0474*%
%ADD13R,0.0474X0.0513*%
%ADD14R,0.0946X0.0316*%
%ADD15C,0.0680*%
%ADD16OC8,0.0710*%
%ADD17C,0.0710*%
%ADD18R,0.0476X0.0476*%
D10*
X002651Y006584D03*
X002907Y006584D03*
X003163Y006584D03*
X003419Y006584D03*
X003419Y008277D03*
X003163Y008277D03*
X002907Y008277D03*
X002651Y008277D03*
X002651Y019084D03*
X002907Y019084D03*
X003163Y019084D03*
X003419Y019084D03*
X003419Y020777D03*
X003163Y020777D03*
X002907Y020777D03*
X002651Y020777D03*
X017651Y020777D03*
X017907Y020777D03*
X018163Y020777D03*
X018419Y020777D03*
X018419Y019084D03*
X018163Y019084D03*
X017907Y019084D03*
X017651Y019084D03*
X017651Y008277D03*
X017907Y008277D03*
X018163Y008277D03*
X018419Y008277D03*
X018419Y006584D03*
X018163Y006584D03*
X017907Y006584D03*
X017651Y006584D03*
D11*
X011929Y007047D03*
X011732Y007047D03*
X011535Y007047D03*
X011338Y007047D03*
X011141Y007047D03*
X011141Y005314D03*
X011338Y005314D03*
X011535Y005314D03*
X011732Y005314D03*
X011929Y005314D03*
X026141Y005314D03*
X026338Y005314D03*
X026535Y005314D03*
X026732Y005314D03*
X026929Y005314D03*
X026929Y007047D03*
X026732Y007047D03*
X026535Y007047D03*
X026338Y007047D03*
X026141Y007047D03*
X026141Y017814D03*
X026338Y017814D03*
X026535Y017814D03*
X026732Y017814D03*
X026929Y017814D03*
X026929Y019547D03*
X026732Y019547D03*
X026535Y019547D03*
X026338Y019547D03*
X026141Y019547D03*
X011929Y019547D03*
X011732Y019547D03*
X011535Y019547D03*
X011338Y019547D03*
X011141Y019547D03*
X011141Y017814D03*
X011338Y017814D03*
X011535Y017814D03*
X011732Y017814D03*
X011929Y017814D03*
D12*
X010285Y018346D03*
X010285Y019015D03*
X010160Y020096D03*
X010160Y020765D03*
X010160Y022596D03*
X010160Y023265D03*
X005535Y020765D03*
X005535Y020096D03*
X004660Y022596D03*
X004660Y023265D03*
X002620Y018430D03*
X001950Y018430D03*
X001660Y015515D03*
X001660Y014846D03*
X002535Y014846D03*
X002535Y015515D03*
X004660Y010765D03*
X004660Y010096D03*
X005535Y008265D03*
X005535Y007596D03*
X002620Y005930D03*
X001950Y005930D03*
X001660Y003015D03*
X001660Y002346D03*
X002535Y002346D03*
X002535Y003015D03*
X010160Y007596D03*
X010160Y008265D03*
X010285Y006515D03*
X010285Y005846D03*
X012075Y003680D03*
X012745Y003680D03*
X016660Y003015D03*
X016660Y002346D03*
X017535Y002346D03*
X017535Y003015D03*
X017620Y005930D03*
X016950Y005930D03*
X020535Y007596D03*
X020535Y008265D03*
X019660Y010096D03*
X019660Y010765D03*
X017535Y014846D03*
X017535Y015515D03*
X016660Y015515D03*
X016660Y014846D03*
X012745Y016180D03*
X012075Y016180D03*
X016950Y018430D03*
X017620Y018430D03*
X020535Y020096D03*
X020535Y020765D03*
X019660Y022596D03*
X019660Y023265D03*
X025160Y023265D03*
X025160Y022596D03*
X025160Y020765D03*
X025160Y020096D03*
X025285Y019015D03*
X025285Y018346D03*
X027075Y016180D03*
X027745Y016180D03*
X025160Y010765D03*
X025160Y010096D03*
X025160Y008265D03*
X025160Y007596D03*
X025285Y006515D03*
X025285Y005846D03*
X027075Y003680D03*
X027745Y003680D03*
X010160Y010096D03*
X010160Y010765D03*
D13*
X010825Y010055D03*
X011495Y010055D03*
X011285Y010846D03*
X011285Y011515D03*
X005535Y010765D03*
X005535Y010096D03*
X004660Y008265D03*
X004660Y007596D03*
X007035Y005890D03*
X007035Y005221D03*
X013035Y005596D03*
X013035Y006265D03*
X019660Y007596D03*
X019660Y008265D03*
X020535Y010096D03*
X020535Y010765D03*
X025825Y010055D03*
X026495Y010055D03*
X026285Y010846D03*
X026285Y011515D03*
X028035Y006265D03*
X028035Y005596D03*
X022035Y005890D03*
X022035Y005221D03*
X022035Y017721D03*
X022035Y018390D03*
X019660Y020096D03*
X019660Y020765D03*
X020535Y022596D03*
X020535Y023265D03*
X025825Y022555D03*
X026495Y022555D03*
X026285Y023346D03*
X026285Y024015D03*
X028035Y018765D03*
X028035Y018096D03*
X013035Y018096D03*
X013035Y018765D03*
X011495Y022555D03*
X010825Y022555D03*
X011285Y023346D03*
X011285Y024015D03*
X005535Y023265D03*
X005535Y022596D03*
X004660Y020765D03*
X004660Y020096D03*
X007035Y018390D03*
X007035Y017721D03*
D14*
X006761Y020180D03*
X006761Y020680D03*
X006761Y021180D03*
X006761Y021680D03*
X006761Y022180D03*
X006761Y022680D03*
X006761Y023180D03*
X008809Y023180D03*
X008809Y022680D03*
X008809Y022180D03*
X008809Y021680D03*
X008809Y021180D03*
X008809Y020680D03*
X008809Y020180D03*
X008809Y010680D03*
X008809Y010180D03*
X008809Y009680D03*
X008809Y009180D03*
X008809Y008680D03*
X008809Y008180D03*
X008809Y007680D03*
X006761Y007680D03*
X006761Y008180D03*
X006761Y008680D03*
X006761Y009180D03*
X006761Y009680D03*
X006761Y010180D03*
X006761Y010680D03*
X021761Y010680D03*
X021761Y010180D03*
X021761Y009680D03*
X021761Y009180D03*
X021761Y008680D03*
X021761Y008180D03*
X021761Y007680D03*
X023809Y007680D03*
X023809Y008180D03*
X023809Y008680D03*
X023809Y009180D03*
X023809Y009680D03*
X023809Y010180D03*
X023809Y010680D03*
X023809Y020180D03*
X023809Y020680D03*
X023809Y021180D03*
X023809Y021680D03*
X023809Y022180D03*
X023809Y022680D03*
X023809Y023180D03*
X021761Y023180D03*
X021761Y022680D03*
X021761Y022180D03*
X021761Y021680D03*
X021761Y021180D03*
X021761Y020680D03*
X021761Y020180D03*
D15*
X021785Y024130D02*
X021785Y024730D01*
X022785Y024730D02*
X022785Y024130D01*
X023785Y024130D02*
X023785Y024730D01*
X027985Y023180D02*
X028585Y023180D01*
X028585Y022180D02*
X027985Y022180D01*
X027985Y021180D02*
X028585Y021180D01*
X028585Y020180D02*
X027985Y020180D01*
X021785Y015730D02*
X021785Y015130D01*
X020785Y015130D02*
X020785Y015730D01*
X019785Y015730D02*
X019785Y015130D01*
X018785Y015130D02*
X018785Y015730D01*
X021785Y012230D02*
X021785Y011630D01*
X022785Y011630D02*
X022785Y012230D01*
X023785Y012230D02*
X023785Y011630D01*
X027985Y010680D02*
X028585Y010680D01*
X028585Y009680D02*
X027985Y009680D01*
X027985Y008680D02*
X028585Y008680D01*
X028585Y007680D02*
X027985Y007680D01*
X021785Y003230D02*
X021785Y002630D01*
X020785Y002630D02*
X020785Y003230D01*
X019785Y003230D02*
X019785Y002630D01*
X018785Y002630D02*
X018785Y003230D01*
X017085Y007680D02*
X016485Y007680D01*
X016485Y008680D02*
X017085Y008680D01*
X017085Y009680D02*
X016485Y009680D01*
X016485Y010680D02*
X017085Y010680D01*
X013585Y010680D02*
X012985Y010680D01*
X012985Y009680D02*
X013585Y009680D01*
X013585Y008680D02*
X012985Y008680D01*
X012985Y007680D02*
X013585Y007680D01*
X008785Y011630D02*
X008785Y012230D01*
X007785Y012230D02*
X007785Y011630D01*
X006785Y011630D02*
X006785Y012230D01*
X006785Y015130D02*
X006785Y015730D01*
X005785Y015730D02*
X005785Y015130D01*
X004785Y015130D02*
X004785Y015730D01*
X003785Y015730D02*
X003785Y015130D01*
X002085Y010680D02*
X001485Y010680D01*
X001485Y009680D02*
X002085Y009680D01*
X002085Y008680D02*
X001485Y008680D01*
X001485Y007680D02*
X002085Y007680D01*
X003785Y003230D02*
X003785Y002630D01*
X004785Y002630D02*
X004785Y003230D01*
X005785Y003230D02*
X005785Y002630D01*
X006785Y002630D02*
X006785Y003230D01*
X002085Y020180D02*
X001485Y020180D01*
X001485Y021180D02*
X002085Y021180D01*
X002085Y022180D02*
X001485Y022180D01*
X001485Y023180D02*
X002085Y023180D01*
X006785Y024130D02*
X006785Y024730D01*
X007785Y024730D02*
X007785Y024130D01*
X008785Y024130D02*
X008785Y024730D01*
X012985Y023180D02*
X013585Y023180D01*
X013585Y022180D02*
X012985Y022180D01*
X012985Y021180D02*
X013585Y021180D01*
X013585Y020180D02*
X012985Y020180D01*
X016485Y020180D02*
X017085Y020180D01*
X017085Y021180D02*
X016485Y021180D01*
X016485Y022180D02*
X017085Y022180D01*
X017085Y023180D02*
X016485Y023180D01*
D16*
X023285Y015180D03*
X023285Y002680D03*
X008285Y002680D03*
X008285Y015180D03*
D17*
X009285Y015180D03*
X009285Y002680D03*
X024285Y002680D03*
X024285Y015180D03*
D18*
X000910Y001180D03*
X003285Y001680D03*
X004160Y004305D03*
X002660Y004805D03*
X001535Y005430D03*
X004660Y006805D03*
X005785Y005055D03*
X007535Y006680D03*
X008785Y005180D03*
X009660Y005930D03*
X009535Y007180D03*
X009660Y009055D03*
X010410Y009055D03*
X012285Y009180D03*
X012410Y006930D03*
X016535Y005430D03*
X017660Y004805D03*
X019160Y004305D03*
X020785Y005055D03*
X022535Y006680D03*
X023785Y005180D03*
X024660Y005930D03*
X024535Y007180D03*
X024660Y009055D03*
X025410Y009055D03*
X027285Y009180D03*
X027410Y006930D03*
X023035Y009180D03*
X022535Y009180D03*
X021035Y009180D03*
X020035Y008930D03*
X020035Y009430D03*
X019660Y011305D03*
X018285Y014180D03*
X015910Y013680D03*
X014285Y013680D03*
X014285Y012180D03*
X015910Y012180D03*
X012160Y014180D03*
X010285Y015180D03*
X008785Y017680D03*
X009660Y018430D03*
X009535Y019680D03*
X007535Y019180D03*
X005785Y017555D03*
X004160Y016805D03*
X002660Y017305D03*
X001535Y017930D03*
X004660Y019305D03*
X005035Y021430D03*
X005035Y021930D03*
X006035Y021680D03*
X007535Y021680D03*
X008035Y021680D03*
X009660Y021555D03*
X010410Y021555D03*
X012285Y021680D03*
X012410Y019430D03*
X016535Y017930D03*
X017660Y017305D03*
X019160Y016805D03*
X020785Y017555D03*
X019660Y019305D03*
X020035Y021430D03*
X020035Y021930D03*
X021035Y021680D03*
X022535Y021680D03*
X023035Y021680D03*
X024660Y021555D03*
X025410Y021555D03*
X027285Y021680D03*
X027410Y019430D03*
X024535Y019680D03*
X024660Y018430D03*
X023785Y017680D03*
X022535Y019180D03*
X025285Y015180D03*
X027160Y014180D03*
X029285Y013680D03*
X029285Y012180D03*
X019660Y006805D03*
X025285Y002680D03*
X027160Y001680D03*
X029285Y001180D03*
X018285Y001680D03*
X015910Y001180D03*
X014285Y001180D03*
X012160Y001680D03*
X010285Y002680D03*
X005035Y008930D03*
X005035Y009430D03*
X006035Y009180D03*
X007535Y009180D03*
X008035Y009180D03*
X004660Y011305D03*
X003285Y014180D03*
X000910Y013680D03*
X000910Y012180D03*
X004660Y023805D03*
X000910Y024680D03*
X014285Y024680D03*
X015910Y024680D03*
X019660Y023805D03*
X029285Y024680D03*
M02*
