%
M48
M72
T01C0.0236
T02C0.0320
T03C0.0400
%
T01
X910Y930
X3285Y1430
X4160Y4055
X2660Y4555
X1535Y5180
X4660Y6555
X5785Y4805
X7535Y6430
X8785Y4930
X9535Y6930
X10535Y8680
X10535Y9180
X9535Y8930
X8035Y8930
X7535Y8930
X6035Y8930
X5035Y8680
X5035Y9180
X4660Y11055
X3285Y13930
X910Y13430
X910Y11930
X4160Y16555
X2660Y17055
X1535Y17680
X4660Y19055
X5785Y17305
X7535Y18930
X8785Y17430
X9535Y19430
X10535Y21180
X10535Y21680
X9535Y21430
X8035Y21430
X7535Y21430
X6035Y21430
X5035Y21180
X5035Y21680
X4660Y23555
X910Y24430
X12160Y13930
X14285Y13430
X14285Y11930
X16160Y11930
X16160Y13430
X18535Y13930
X19410Y16555
X17910Y17055
X16785Y17680
X19910Y19055
X21035Y17305
X22785Y18930
X24035Y17430
X24785Y19430
X25785Y21180
X25785Y21680
X24785Y21430
X23285Y21430
X22785Y21430
X21285Y21430
X20285Y21180
X20285Y21680
X19910Y23555
X16160Y24430
X14285Y24430
X27410Y13930
X29535Y13430
X29535Y11930
X25785Y9180
X25785Y8680
X24785Y8930
X23285Y8930
X22785Y8930
X21285Y8930
X20285Y8680
X20285Y9180
X19910Y11055
X24785Y6930
X22785Y6430
X24035Y4930
X21035Y4805
X19410Y4055
X17910Y4555
X16785Y5180
X19910Y6555
X18535Y1430
X16160Y930
X14285Y930
X12160Y1430
X27410Y1430
X29535Y930
X29535Y24430
T02
X24535Y14930
X23535Y14930
X9285Y14930
X8285Y14930
X8285Y2430
X9285Y2430
X23535Y2430
X24535Y2430
T03
X22035Y2430
X21035Y2430
X20035Y2430
X19035Y2430
X17035Y7430
X17035Y8430
X17035Y9430
X17035Y10430
X13285Y10430
X13285Y9430
X13285Y8430
X13285Y7430
X6785Y2430
X5785Y2430
X4785Y2430
X3785Y2430
X1785Y7430
X1785Y8430
X1785Y9430
X1785Y10430
X3785Y14930
X4785Y14930
X5785Y14930
X6785Y14930
X1785Y19930
X1785Y20930
X1785Y21930
X1785Y22930
X13285Y22930
X13285Y21930
X13285Y20930
X13285Y19930
X17035Y19930
X17035Y20930
X17035Y21930
X17035Y22930
X19035Y14930
X20035Y14930
X21035Y14930
X22035Y14930
X28535Y10430
X28535Y9430
X28535Y8430
X28535Y7430
X28535Y19930
X28535Y20930
X28535Y21930
X28535Y22930
M30
