G75*
%MOIN*%
%OFA0B0*%
%FSLAX24Y24*%
%IPPOS*%
%LPD*%
%AMOC8*
5,1,8,0,0,1.08239X$1,22.5*
%
%ADD10R,0.0710X0.0222*%
%ADD11R,0.0474X0.0513*%
%ADD12R,0.0513X0.0474*%
%ADD13R,0.0946X0.0316*%
%ADD14R,0.0474X0.0356*%
%ADD15C,0.0680*%
%ADD16OC8,0.0710*%
%ADD17C,0.0710*%
%ADD18R,0.0476X0.0476*%
D10*
X004990Y004055D03*
X004990Y004305D03*
X004990Y004555D03*
X004990Y004805D03*
X004990Y005055D03*
X004990Y005305D03*
X004990Y005555D03*
X004990Y005805D03*
X007080Y005805D03*
X007080Y005555D03*
X007080Y005305D03*
X007080Y005055D03*
X007080Y004805D03*
X007080Y004555D03*
X007080Y004305D03*
X007080Y004055D03*
X020240Y004055D03*
X020240Y004305D03*
X020240Y004555D03*
X020240Y004805D03*
X020240Y005055D03*
X020240Y005305D03*
X020240Y005555D03*
X020240Y005805D03*
X022330Y005805D03*
X022330Y005555D03*
X022330Y005305D03*
X022330Y005055D03*
X022330Y004805D03*
X022330Y004555D03*
X022330Y004305D03*
X022330Y004055D03*
X022330Y016555D03*
X022330Y016805D03*
X022330Y017055D03*
X022330Y017305D03*
X022330Y017555D03*
X022330Y017805D03*
X022330Y018055D03*
X022330Y018305D03*
X020240Y018305D03*
X020240Y018055D03*
X020240Y017805D03*
X020240Y017555D03*
X020240Y017305D03*
X020240Y017055D03*
X020240Y016805D03*
X020240Y016555D03*
X007080Y016555D03*
X007080Y016805D03*
X007080Y017055D03*
X007080Y017305D03*
X007080Y017555D03*
X007080Y017805D03*
X007080Y018055D03*
X007080Y018305D03*
X004990Y018305D03*
X004990Y018055D03*
X004990Y017805D03*
X004990Y017555D03*
X004990Y017305D03*
X004990Y017055D03*
X004990Y016805D03*
X004990Y016555D03*
D11*
X004160Y017471D03*
X004160Y018140D03*
X005535Y019846D03*
X005535Y020515D03*
X003495Y020930D03*
X002825Y020930D03*
X002825Y020055D03*
X003495Y020055D03*
X003495Y021930D03*
X002825Y021930D03*
X002825Y022805D03*
X003495Y022805D03*
X005535Y023015D03*
X005535Y022346D03*
X010035Y022346D03*
X010035Y023015D03*
X010035Y020515D03*
X010035Y019846D03*
X009285Y018765D03*
X009285Y018096D03*
X009700Y017430D03*
X010370Y017430D03*
X010325Y018180D03*
X010995Y018180D03*
X011450Y018180D03*
X012120Y018180D03*
X008035Y018015D03*
X008035Y017346D03*
X008035Y016765D03*
X008035Y016096D03*
X010035Y010515D03*
X010035Y009846D03*
X010035Y008015D03*
X010035Y007346D03*
X009285Y006265D03*
X009285Y005596D03*
X009700Y004930D03*
X010370Y004930D03*
X010325Y005680D03*
X010995Y005680D03*
X011450Y005680D03*
X012120Y005680D03*
X008035Y005515D03*
X008035Y004846D03*
X008035Y004265D03*
X008035Y003596D03*
X004160Y004971D03*
X004160Y005640D03*
X005535Y007346D03*
X005535Y008015D03*
X005535Y009846D03*
X005535Y010515D03*
X003495Y010305D03*
X002825Y010305D03*
X002825Y009430D03*
X003495Y009430D03*
X003495Y008430D03*
X002825Y008430D03*
X002825Y007555D03*
X003495Y007555D03*
X018075Y007555D03*
X018745Y007555D03*
X018745Y008430D03*
X018075Y008430D03*
X018075Y009430D03*
X018745Y009430D03*
X018745Y010305D03*
X018075Y010305D03*
X020785Y010515D03*
X020785Y009846D03*
X020785Y008015D03*
X020785Y007346D03*
X019410Y005640D03*
X019410Y004971D03*
X023285Y004846D03*
X023285Y005515D03*
X024535Y005596D03*
X024535Y006265D03*
X025575Y005680D03*
X026245Y005680D03*
X026700Y005680D03*
X027370Y005680D03*
X025620Y004930D03*
X024950Y004930D03*
X023285Y004265D03*
X023285Y003596D03*
X025285Y007346D03*
X025285Y008015D03*
X025285Y009846D03*
X025285Y010515D03*
X023285Y016096D03*
X023285Y016765D03*
X023285Y017346D03*
X023285Y018015D03*
X024535Y018096D03*
X024535Y018765D03*
X025575Y018180D03*
X026245Y018180D03*
X026700Y018180D03*
X027370Y018180D03*
X025620Y017430D03*
X024950Y017430D03*
X025285Y019846D03*
X025285Y020515D03*
X025285Y022346D03*
X025285Y023015D03*
X020785Y023015D03*
X020785Y022346D03*
X018745Y021930D03*
X018075Y021930D03*
X018075Y022805D03*
X018745Y022805D03*
X018745Y020930D03*
X018075Y020930D03*
X018075Y020055D03*
X018745Y020055D03*
X020785Y019846D03*
X020785Y020515D03*
X019410Y018140D03*
X019410Y017471D03*
D12*
X020950Y019055D03*
X021620Y019055D03*
X019910Y019846D03*
X019910Y020515D03*
X019910Y022346D03*
X019910Y023015D03*
X026160Y023015D03*
X026160Y022346D03*
X026160Y020515D03*
X026160Y019846D03*
X026160Y010515D03*
X026160Y009846D03*
X026160Y008015D03*
X026160Y007346D03*
X021620Y006555D03*
X020950Y006555D03*
X019910Y007346D03*
X019910Y008015D03*
X019910Y009846D03*
X019910Y010515D03*
X010910Y010515D03*
X010910Y009846D03*
X010910Y008015D03*
X010910Y007346D03*
X006370Y006555D03*
X005700Y006555D03*
X004660Y007346D03*
X004660Y008015D03*
X004660Y009846D03*
X004660Y010515D03*
X005700Y019055D03*
X006370Y019055D03*
X004660Y019846D03*
X004660Y020515D03*
X004660Y022346D03*
X004660Y023015D03*
X010910Y023015D03*
X010910Y022346D03*
X010910Y020515D03*
X010910Y019846D03*
D13*
X008809Y019930D03*
X008809Y020430D03*
X008809Y020930D03*
X008809Y021430D03*
X008809Y021930D03*
X008809Y022430D03*
X008809Y022930D03*
X006761Y022930D03*
X006761Y022430D03*
X006761Y021930D03*
X006761Y021430D03*
X006761Y020930D03*
X006761Y020430D03*
X006761Y019930D03*
X006761Y010430D03*
X006761Y009930D03*
X006761Y009430D03*
X006761Y008930D03*
X006761Y008430D03*
X006761Y007930D03*
X006761Y007430D03*
X008809Y007430D03*
X008809Y007930D03*
X008809Y008430D03*
X008809Y008930D03*
X008809Y009430D03*
X008809Y009930D03*
X008809Y010430D03*
X022011Y010430D03*
X022011Y009930D03*
X022011Y009430D03*
X022011Y008930D03*
X022011Y008430D03*
X022011Y007930D03*
X022011Y007430D03*
X024059Y007430D03*
X024059Y007930D03*
X024059Y008430D03*
X024059Y008930D03*
X024059Y009430D03*
X024059Y009930D03*
X024059Y010430D03*
X024059Y019930D03*
X024059Y020430D03*
X024059Y020930D03*
X024059Y021430D03*
X024059Y021930D03*
X024059Y022430D03*
X024059Y022930D03*
X022011Y022930D03*
X022011Y022430D03*
X022011Y021930D03*
X022011Y021430D03*
X022011Y020930D03*
X022011Y020430D03*
X022011Y019930D03*
D14*
X026477Y017679D03*
X026477Y016931D03*
X027343Y017305D03*
X026477Y005179D03*
X026477Y004431D03*
X027343Y004805D03*
X012093Y004805D03*
X011227Y004431D03*
X011227Y005179D03*
X011227Y016931D03*
X011227Y017679D03*
X012093Y017305D03*
D15*
X012985Y019930D02*
X013585Y019930D01*
X013585Y020930D02*
X012985Y020930D01*
X012985Y021930D02*
X013585Y021930D01*
X013585Y022930D02*
X012985Y022930D01*
X016735Y022930D02*
X017335Y022930D01*
X017335Y021930D02*
X016735Y021930D01*
X016735Y020930D02*
X017335Y020930D01*
X017335Y019930D02*
X016735Y019930D01*
X019035Y015230D02*
X019035Y014630D01*
X020035Y014630D02*
X020035Y015230D01*
X021035Y015230D02*
X021035Y014630D01*
X022035Y014630D02*
X022035Y015230D01*
X017335Y010430D02*
X016735Y010430D01*
X016735Y009430D02*
X017335Y009430D01*
X017335Y008430D02*
X016735Y008430D01*
X016735Y007430D02*
X017335Y007430D01*
X013585Y007430D02*
X012985Y007430D01*
X012985Y008430D02*
X013585Y008430D01*
X013585Y009430D02*
X012985Y009430D01*
X012985Y010430D02*
X013585Y010430D01*
X006785Y014630D02*
X006785Y015230D01*
X005785Y015230D02*
X005785Y014630D01*
X004785Y014630D02*
X004785Y015230D01*
X003785Y015230D02*
X003785Y014630D01*
X002085Y010430D02*
X001485Y010430D01*
X001485Y009430D02*
X002085Y009430D01*
X002085Y008430D02*
X001485Y008430D01*
X001485Y007430D02*
X002085Y007430D01*
X003785Y002730D02*
X003785Y002130D01*
X004785Y002130D02*
X004785Y002730D01*
X005785Y002730D02*
X005785Y002130D01*
X006785Y002130D02*
X006785Y002730D01*
X019035Y002730D02*
X019035Y002130D01*
X020035Y002130D02*
X020035Y002730D01*
X021035Y002730D02*
X021035Y002130D01*
X022035Y002130D02*
X022035Y002730D01*
X028235Y007430D02*
X028835Y007430D01*
X028835Y008430D02*
X028235Y008430D01*
X028235Y009430D02*
X028835Y009430D01*
X028835Y010430D02*
X028235Y010430D01*
X028235Y019930D02*
X028835Y019930D01*
X028835Y020930D02*
X028235Y020930D01*
X028235Y021930D02*
X028835Y021930D01*
X028835Y022930D02*
X028235Y022930D01*
X002085Y022930D02*
X001485Y022930D01*
X001485Y021930D02*
X002085Y021930D01*
X002085Y020930D02*
X001485Y020930D01*
X001485Y019930D02*
X002085Y019930D01*
D16*
X008285Y014930D03*
X008285Y002430D03*
X023535Y002430D03*
X023535Y014930D03*
D17*
X024535Y014930D03*
X024535Y002430D03*
X009285Y002430D03*
X009285Y014930D03*
D18*
X000910Y000930D03*
X003285Y001430D03*
X004160Y004055D03*
X002660Y004555D03*
X001535Y005180D03*
X004660Y006555D03*
X005785Y004805D03*
X007535Y006430D03*
X008785Y004930D03*
X009535Y006930D03*
X010535Y008680D03*
X010535Y009180D03*
X009535Y008930D03*
X008035Y008930D03*
X007535Y008930D03*
X006035Y008930D03*
X005035Y008680D03*
X005035Y009180D03*
X004660Y011055D03*
X003285Y013930D03*
X000910Y013430D03*
X000910Y011930D03*
X004160Y016555D03*
X002660Y017055D03*
X001535Y017680D03*
X004660Y019055D03*
X005785Y017305D03*
X007535Y018930D03*
X008785Y017430D03*
X009535Y019430D03*
X010535Y021180D03*
X010535Y021680D03*
X009535Y021430D03*
X008035Y021430D03*
X007535Y021430D03*
X006035Y021430D03*
X005035Y021180D03*
X005035Y021680D03*
X004660Y023555D03*
X000910Y024430D03*
X012160Y013930D03*
X014285Y013430D03*
X014285Y011930D03*
X016160Y011930D03*
X016160Y013430D03*
X018535Y013930D03*
X019410Y016555D03*
X017910Y017055D03*
X016785Y017680D03*
X019910Y019055D03*
X021035Y017305D03*
X022785Y018930D03*
X024035Y017430D03*
X024785Y019430D03*
X025785Y021180D03*
X025785Y021680D03*
X024785Y021430D03*
X023285Y021430D03*
X022785Y021430D03*
X021285Y021430D03*
X020285Y021180D03*
X020285Y021680D03*
X019910Y023555D03*
X016160Y024430D03*
X014285Y024430D03*
X027410Y013930D03*
X029535Y013430D03*
X029535Y011930D03*
X025785Y009180D03*
X025785Y008680D03*
X024785Y008930D03*
X023285Y008930D03*
X022785Y008930D03*
X021285Y008930D03*
X020285Y008680D03*
X020285Y009180D03*
X019910Y011055D03*
X024785Y006930D03*
X022785Y006430D03*
X024035Y004930D03*
X021035Y004805D03*
X019410Y004055D03*
X017910Y004555D03*
X016785Y005180D03*
X019910Y006555D03*
X018535Y001430D03*
X016160Y000930D03*
X014285Y000930D03*
X012160Y001430D03*
X027410Y001430D03*
X029535Y000930D03*
X029535Y024430D03*
M02*
