%
M48
M72
T01C0.0236
T02C0.0320
T03C0.0400
%
T01
X910Y1180
X3285Y1680
X4160Y4305
X2660Y4805
X1535Y5430
X4660Y6805
X5785Y5055
X7535Y6680
X8785Y5180
X9660Y5930
X9535Y7180
X9660Y9055
X10410Y9055
X12285Y9180
X12410Y6930
X16535Y5430
X17660Y4805
X19160Y4305
X20785Y5055
X22535Y6680
X23785Y5180
X24660Y5930
X24535Y7180
X24660Y9055
X25410Y9055
X27285Y9180
X27410Y6930
X23035Y9180
X22535Y9180
X21035Y9180
X20035Y8930
X20035Y9430
X19660Y11305
X18285Y14180
X15910Y13680
X14285Y13680
X14285Y12180
X15910Y12180
X12160Y14180
X10285Y15180
X8785Y17680
X9660Y18430
X9535Y19680
X7535Y19180
X5785Y17555
X4160Y16805
X2660Y17305
X1535Y17930
X4660Y19305
X5035Y21430
X5035Y21930
X6035Y21680
X7535Y21680
X8035Y21680
X9660Y21555
X10410Y21555
X12285Y21680
X12410Y19430
X16535Y17930
X17660Y17305
X19160Y16805
X20785Y17555
X19660Y19305
X20035Y21430
X20035Y21930
X21035Y21680
X22535Y21680
X23035Y21680
X24660Y21555
X25410Y21555
X27285Y21680
X27410Y19430
X24535Y19680
X24660Y18430
X23785Y17680
X22535Y19180
X25285Y15180
X27160Y14180
X29285Y13680
X29285Y12180
X19660Y6805
X25285Y2680
X27160Y1680
X29285Y1180
X18285Y1680
X15910Y1180
X14285Y1180
X12160Y1680
X10285Y2680
X5035Y8930
X5035Y9430
X6035Y9180
X7535Y9180
X8035Y9180
X4660Y11305
X3285Y14180
X910Y13680
X910Y12180
X4660Y23805
X910Y24680
X14285Y24680
X15910Y24680
X19660Y23805
X29285Y24680
T02
X24285Y15180
X23285Y15180
X9285Y15180
X8285Y15180
X8285Y2680
X9285Y2680
X23285Y2680
X24285Y2680
T03
X21785Y2930
X20785Y2930
X19785Y2930
X18785Y2930
X16785Y7680
X16785Y8680
X16785Y9680
X16785Y10680
X13285Y10680
X13285Y9680
X13285Y8680
X13285Y7680
X8785Y11930
X7785Y11930
X6785Y11930
X6785Y15430
X5785Y15430
X4785Y15430
X3785Y15430
X1785Y10680
X1785Y9680
X1785Y8680
X1785Y7680
X3785Y2930
X4785Y2930
X5785Y2930
X6785Y2930
X18785Y15430
X19785Y15430
X20785Y15430
X21785Y15430
X21785Y11930
X22785Y11930
X23785Y11930
X28285Y10680
X28285Y9680
X28285Y8680
X28285Y7680
X28285Y20180
X28285Y21180
X28285Y22180
X28285Y23180
X23785Y24430
X22785Y24430
X21785Y24430
X16785Y23180
X16785Y22180
X16785Y21180
X16785Y20180
X13285Y20180
X13285Y21180
X13285Y22180
X13285Y23180
X8785Y24430
X7785Y24430
X6785Y24430
X1785Y23180
X1785Y22180
X1785Y21180
X1785Y20180
M30
