G75*
%MOIN*%
%OFA0B0*%
%FSLAX24Y24*%
%IPPOS*%
%LPD*%
%AMOC8*
5,1,8,0,0,1.08239X$1,22.5*
%
%ADD10C,0.0000*%
%ADD11C,0.0050*%
%ADD12C,0.0249*%
%ADD13C,0.0176*%
D10*
X000160Y000180D02*
X015035Y000180D01*
X015030Y000180D02*
X015030Y012676D01*
X000160Y012676D01*
X000160Y000180D01*
X000160Y012680D02*
X015035Y012680D01*
X015030Y012680D02*
X015030Y025176D01*
X000160Y025176D01*
X000160Y012680D01*
X015410Y012676D02*
X015410Y000180D01*
X030285Y000180D01*
X030280Y000180D02*
X030280Y012676D01*
X015410Y012676D01*
X015410Y012680D02*
X030285Y012680D01*
X030280Y012680D02*
X030280Y025176D01*
X015410Y025176D01*
X015410Y012680D01*
D11*
X011626Y015340D02*
X011626Y016521D01*
X010444Y016521D01*
X010444Y015340D01*
X011626Y015340D01*
X017694Y019090D02*
X017694Y020271D01*
X018876Y020271D01*
X018876Y019090D01*
X017694Y019090D01*
X025694Y016521D02*
X025694Y015340D01*
X026876Y015340D01*
X026876Y016521D01*
X025694Y016521D01*
X018876Y007771D02*
X017694Y007771D01*
X017694Y006590D01*
X018876Y006590D01*
X018876Y007771D01*
X025694Y004021D02*
X025694Y002840D01*
X026876Y002840D01*
X026876Y004021D01*
X025694Y004021D01*
X011626Y004021D02*
X011626Y002840D01*
X010444Y002840D01*
X010444Y004021D01*
X011626Y004021D01*
X003626Y006590D02*
X002444Y006590D01*
X002444Y007771D01*
X003626Y007771D01*
X003626Y006590D01*
X003626Y019090D02*
X002444Y019090D01*
X002444Y020271D01*
X003626Y020271D01*
X003626Y019090D01*
D12*
X002681Y020035D03*
X002681Y007535D03*
X017931Y007535D03*
X017931Y020035D03*
D13*
X011429Y015537D03*
X011429Y003037D03*
X026679Y003037D03*
X026679Y015537D03*
M02*
