G75*
%MOIN*%
%OFA0B0*%
%FSLAX24Y24*%
%IPPOS*%
%LPD*%
%AMOC8*
5,1,8,0,0,1.08239X$1,22.5*
%
%ADD10C,0.0000*%
%ADD11C,0.0080*%
%ADD12C,0.0050*%
%ADD13C,0.0060*%
D10*
X000160Y000430D02*
X015035Y000430D01*
X015030Y000430D02*
X015030Y012926D01*
X000160Y012926D01*
X000160Y000430D01*
X000160Y012930D02*
X015035Y012930D01*
X015030Y012930D02*
X015030Y025426D01*
X000160Y025426D01*
X000160Y012930D01*
X015160Y012926D02*
X015160Y000430D01*
X030035Y000430D01*
X030030Y000430D02*
X030030Y012926D01*
X015160Y012926D01*
X015160Y012930D02*
X030035Y012930D01*
X030030Y012930D02*
X030030Y025426D01*
X015160Y025426D01*
X015160Y012930D01*
D11*
X016325Y011684D02*
X016432Y011791D01*
X016539Y011684D01*
X016539Y011470D01*
X016693Y011470D02*
X016800Y011470D01*
X016747Y011470D02*
X016747Y011791D01*
X016800Y011791D02*
X016693Y011791D01*
X016539Y011631D02*
X016325Y011631D01*
X016325Y011684D02*
X016325Y011470D01*
X016939Y011524D02*
X017152Y011737D01*
X017152Y011524D01*
X017099Y011470D01*
X016992Y011470D01*
X016939Y011524D01*
X016939Y011737D01*
X016992Y011791D01*
X017099Y011791D01*
X017152Y011737D01*
X018603Y013470D02*
X018656Y013470D01*
X018710Y013524D01*
X018710Y013631D01*
X018763Y013684D01*
X018817Y013684D01*
X018870Y013631D01*
X018870Y013524D01*
X018817Y013470D01*
X018603Y013470D02*
X018550Y013524D01*
X018550Y013631D01*
X018603Y013684D01*
X018603Y013839D02*
X018817Y013839D01*
X018870Y013892D01*
X018870Y013999D01*
X018817Y014052D01*
X018870Y014207D02*
X018870Y014421D01*
X018870Y014207D02*
X018550Y014207D01*
X018603Y014052D02*
X018550Y013999D01*
X018550Y013892D01*
X018603Y013839D01*
X019550Y013839D02*
X019550Y013999D01*
X019603Y014052D01*
X019817Y014052D01*
X019870Y013999D01*
X019870Y013839D01*
X019550Y013839D01*
X019603Y013684D02*
X019550Y013631D01*
X019550Y013524D01*
X019603Y013470D01*
X019656Y013470D01*
X019710Y013524D01*
X019710Y013631D01*
X019763Y013684D01*
X019817Y013684D01*
X019870Y013631D01*
X019870Y013524D01*
X019817Y013470D01*
X019870Y014207D02*
X019656Y014207D01*
X019550Y014314D01*
X019656Y014421D01*
X019870Y014421D01*
X019710Y014421D02*
X019710Y014207D01*
X020550Y014207D02*
X020763Y014207D01*
X020870Y014314D01*
X020763Y014421D01*
X020550Y014421D01*
X020550Y014052D02*
X020550Y013839D01*
X020710Y013839D01*
X020656Y013945D01*
X020656Y013999D01*
X020710Y014052D01*
X020817Y014052D01*
X020870Y013999D01*
X020870Y013892D01*
X020817Y013839D01*
X020710Y013684D02*
X020710Y013470D01*
X020603Y013577D02*
X020817Y013577D01*
X021550Y013524D02*
X021603Y013470D01*
X021817Y013470D01*
X021870Y013524D01*
X021870Y013631D01*
X021817Y013684D01*
X021710Y013684D01*
X021710Y013577D01*
X021603Y013684D02*
X021550Y013631D01*
X021550Y013524D01*
X021550Y013839D02*
X021870Y014052D01*
X021550Y014052D01*
X021550Y014207D02*
X021550Y014367D01*
X021603Y014421D01*
X021817Y014421D01*
X021870Y014367D01*
X021870Y014207D01*
X021550Y014207D01*
X021550Y013839D02*
X021870Y013839D01*
X020710Y012302D02*
X020710Y012089D01*
X020603Y012195D02*
X020817Y012195D01*
X020763Y011934D02*
X020550Y011934D01*
X020763Y011934D02*
X020870Y011827D01*
X020763Y011720D01*
X020550Y011720D01*
X024675Y011720D02*
X024888Y011720D01*
X024995Y011827D01*
X024888Y011934D01*
X024675Y011934D01*
X024835Y012089D02*
X024835Y012302D01*
X027825Y011684D02*
X027825Y011470D01*
X027825Y011631D02*
X028039Y011631D01*
X028039Y011684D02*
X028039Y011470D01*
X028193Y011524D02*
X028193Y011737D01*
X028247Y011791D01*
X028353Y011791D01*
X028407Y011737D01*
X028407Y011524D01*
X028353Y011470D01*
X028247Y011470D01*
X028193Y011524D01*
X028039Y011684D02*
X027932Y011791D01*
X027825Y011684D01*
X028562Y011737D02*
X028562Y011524D01*
X028775Y011737D01*
X028775Y011524D01*
X028722Y011470D01*
X028615Y011470D01*
X028562Y011524D01*
X028562Y011737D02*
X028615Y011791D01*
X028722Y011791D01*
X028775Y011737D01*
X028722Y006791D02*
X028615Y006791D01*
X028562Y006737D01*
X028668Y006631D02*
X028722Y006631D01*
X028775Y006577D01*
X028775Y006524D01*
X028722Y006470D01*
X028615Y006470D01*
X028562Y006524D01*
X028407Y006524D02*
X028407Y006737D01*
X028353Y006791D01*
X028247Y006791D01*
X028193Y006737D01*
X028193Y006524D01*
X028247Y006470D01*
X028353Y006470D01*
X028407Y006524D01*
X028722Y006631D02*
X028775Y006684D01*
X028775Y006737D01*
X028722Y006791D01*
X028039Y006684D02*
X028039Y006470D01*
X028039Y006631D02*
X027825Y006631D01*
X027825Y006684D02*
X027932Y006791D01*
X028039Y006684D01*
X027825Y006684D02*
X027825Y006470D01*
X021870Y001867D02*
X021870Y001707D01*
X021550Y001707D01*
X021550Y001867D01*
X021603Y001921D01*
X021817Y001921D01*
X021870Y001867D01*
X021870Y001552D02*
X021550Y001552D01*
X021550Y001339D02*
X021870Y001552D01*
X021870Y001339D02*
X021550Y001339D01*
X021603Y001184D02*
X021550Y001131D01*
X021550Y001024D01*
X021603Y000970D01*
X021817Y000970D01*
X021870Y001024D01*
X021870Y001131D01*
X021817Y001184D01*
X021710Y001184D01*
X021710Y001077D01*
X020870Y001392D02*
X020817Y001339D01*
X020870Y001392D02*
X020870Y001499D01*
X020817Y001552D01*
X020710Y001552D01*
X020656Y001499D01*
X020656Y001445D01*
X020710Y001339D01*
X020550Y001339D01*
X020550Y001552D01*
X020550Y001707D02*
X020763Y001707D01*
X020870Y001814D01*
X020763Y001921D01*
X020550Y001921D01*
X019870Y001921D02*
X019656Y001921D01*
X019550Y001814D01*
X019656Y001707D01*
X019870Y001707D01*
X019710Y001707D02*
X019710Y001921D01*
X019817Y001552D02*
X019603Y001552D01*
X019550Y001499D01*
X019550Y001339D01*
X019870Y001339D01*
X019870Y001499D01*
X019817Y001552D01*
X019817Y001184D02*
X019870Y001131D01*
X019870Y001024D01*
X019817Y000970D01*
X019710Y001024D02*
X019710Y001131D01*
X019763Y001184D01*
X019817Y001184D01*
X019710Y001024D02*
X019656Y000970D01*
X019603Y000970D01*
X019550Y001024D01*
X019550Y001131D01*
X019603Y001184D01*
X018870Y001131D02*
X018870Y001024D01*
X018817Y000970D01*
X018710Y001024D02*
X018710Y001131D01*
X018763Y001184D01*
X018817Y001184D01*
X018870Y001131D01*
X018710Y001024D02*
X018656Y000970D01*
X018603Y000970D01*
X018550Y001024D01*
X018550Y001131D01*
X018603Y001184D01*
X018603Y001339D02*
X018817Y001339D01*
X018870Y001392D01*
X018870Y001499D01*
X018817Y001552D01*
X018870Y001707D02*
X018550Y001707D01*
X018603Y001552D02*
X018550Y001499D01*
X018550Y001392D01*
X018603Y001339D01*
X018870Y001707D02*
X018870Y001921D01*
X020603Y001077D02*
X020817Y001077D01*
X020710Y000970D02*
X020710Y001184D01*
X017099Y006470D02*
X016992Y006470D01*
X016939Y006524D01*
X016800Y006470D02*
X016693Y006470D01*
X016747Y006470D02*
X016747Y006791D01*
X016800Y006791D02*
X016693Y006791D01*
X016539Y006684D02*
X016539Y006470D01*
X016539Y006631D02*
X016325Y006631D01*
X016325Y006684D02*
X016432Y006791D01*
X016539Y006684D01*
X016325Y006684D02*
X016325Y006470D01*
X016939Y006737D02*
X016992Y006791D01*
X017099Y006791D01*
X017152Y006737D01*
X017152Y006684D01*
X017099Y006631D01*
X017152Y006577D01*
X017152Y006524D01*
X017099Y006470D01*
X017099Y006631D02*
X017046Y006631D01*
X013775Y006684D02*
X013722Y006631D01*
X013775Y006577D01*
X013775Y006524D01*
X013722Y006470D01*
X013615Y006470D01*
X013562Y006524D01*
X013668Y006631D02*
X013722Y006631D01*
X013775Y006684D02*
X013775Y006737D01*
X013722Y006791D01*
X013615Y006791D01*
X013562Y006737D01*
X013407Y006737D02*
X013353Y006791D01*
X013247Y006791D01*
X013193Y006737D01*
X013193Y006524D01*
X013247Y006470D01*
X013353Y006470D01*
X013407Y006524D01*
X013407Y006737D01*
X013039Y006684D02*
X013039Y006470D01*
X013039Y006631D02*
X012825Y006631D01*
X012825Y006684D02*
X012932Y006791D01*
X013039Y006684D01*
X012825Y006684D02*
X012825Y006470D01*
X012825Y011470D02*
X012825Y011684D01*
X012932Y011791D01*
X013039Y011684D01*
X013039Y011470D01*
X013039Y011631D02*
X012825Y011631D01*
X013193Y011737D02*
X013193Y011524D01*
X013247Y011470D01*
X013353Y011470D01*
X013407Y011524D01*
X013407Y011737D01*
X013353Y011791D01*
X013247Y011791D01*
X013193Y011737D01*
X013562Y011737D02*
X013562Y011524D01*
X013775Y011737D01*
X013775Y011524D01*
X013722Y011470D01*
X013615Y011470D01*
X013562Y011524D01*
X013562Y011737D02*
X013615Y011791D01*
X013722Y011791D01*
X013775Y011737D01*
X009995Y011827D02*
X009888Y011934D01*
X009675Y011934D01*
X009675Y011720D02*
X009888Y011720D01*
X009995Y011827D01*
X009835Y012089D02*
X009835Y012302D01*
X006870Y013524D02*
X006817Y013470D01*
X006603Y013470D01*
X006550Y013524D01*
X006550Y013631D01*
X006603Y013684D01*
X006710Y013684D02*
X006710Y013577D01*
X006710Y013684D02*
X006817Y013684D01*
X006870Y013631D01*
X006870Y013524D01*
X006870Y013839D02*
X006550Y013839D01*
X006870Y014052D01*
X006550Y014052D01*
X006550Y014207D02*
X006550Y014367D01*
X006603Y014421D01*
X006817Y014421D01*
X006870Y014367D01*
X006870Y014207D01*
X006550Y014207D01*
X005870Y014314D02*
X005763Y014207D01*
X005550Y014207D01*
X005550Y014052D02*
X005550Y013839D01*
X005710Y013839D01*
X005656Y013945D01*
X005656Y013999D01*
X005710Y014052D01*
X005817Y014052D01*
X005870Y013999D01*
X005870Y013892D01*
X005817Y013839D01*
X005710Y013684D02*
X005710Y013470D01*
X005603Y013577D02*
X005817Y013577D01*
X005870Y014314D02*
X005763Y014421D01*
X005550Y014421D01*
X004870Y014421D02*
X004656Y014421D01*
X004550Y014314D01*
X004656Y014207D01*
X004870Y014207D01*
X004710Y014207D02*
X004710Y014421D01*
X004817Y014052D02*
X004603Y014052D01*
X004550Y013999D01*
X004550Y013839D01*
X004870Y013839D01*
X004870Y013999D01*
X004817Y014052D01*
X004817Y013684D02*
X004870Y013631D01*
X004870Y013524D01*
X004817Y013470D01*
X004710Y013524D02*
X004656Y013470D01*
X004603Y013470D01*
X004550Y013524D01*
X004550Y013631D01*
X004603Y013684D01*
X004710Y013631D02*
X004763Y013684D01*
X004817Y013684D01*
X004710Y013631D02*
X004710Y013524D01*
X003870Y013524D02*
X003817Y013470D01*
X003870Y013524D02*
X003870Y013631D01*
X003817Y013684D01*
X003763Y013684D01*
X003710Y013631D01*
X003710Y013524D01*
X003656Y013470D01*
X003603Y013470D01*
X003550Y013524D01*
X003550Y013631D01*
X003603Y013684D01*
X003603Y013839D02*
X003817Y013839D01*
X003870Y013892D01*
X003870Y013999D01*
X003817Y014052D01*
X003870Y014207D02*
X003870Y014421D01*
X003870Y014207D02*
X003550Y014207D01*
X003603Y014052D02*
X003550Y013999D01*
X003550Y013892D01*
X003603Y013839D01*
X005603Y012195D02*
X005817Y012195D01*
X005710Y012089D02*
X005710Y012302D01*
X005763Y011934D02*
X005550Y011934D01*
X005763Y011934D02*
X005870Y011827D01*
X005763Y011720D01*
X005550Y011720D01*
X002152Y011737D02*
X002152Y011524D01*
X002099Y011470D01*
X001992Y011470D01*
X001939Y011524D01*
X002152Y011737D01*
X002099Y011791D01*
X001992Y011791D01*
X001939Y011737D01*
X001939Y011524D01*
X001800Y011470D02*
X001693Y011470D01*
X001747Y011470D02*
X001747Y011791D01*
X001800Y011791D02*
X001693Y011791D01*
X001539Y011684D02*
X001539Y011470D01*
X001539Y011631D02*
X001325Y011631D01*
X001325Y011684D02*
X001325Y011470D01*
X001325Y011684D02*
X001432Y011791D01*
X001539Y011684D01*
X001432Y006791D02*
X001539Y006684D01*
X001539Y006470D01*
X001693Y006470D02*
X001800Y006470D01*
X001747Y006470D02*
X001747Y006791D01*
X001800Y006791D02*
X001693Y006791D01*
X001539Y006631D02*
X001325Y006631D01*
X001325Y006684D02*
X001432Y006791D01*
X001325Y006684D02*
X001325Y006470D01*
X001939Y006524D02*
X001992Y006470D01*
X002099Y006470D01*
X002152Y006524D01*
X002152Y006577D01*
X002099Y006631D01*
X002046Y006631D01*
X002099Y006631D02*
X002152Y006684D01*
X002152Y006737D01*
X002099Y006791D01*
X001992Y006791D01*
X001939Y006737D01*
X003870Y001921D02*
X003870Y001707D01*
X003550Y001707D01*
X003603Y001552D02*
X003550Y001499D01*
X003550Y001392D01*
X003603Y001339D01*
X003817Y001339D01*
X003870Y001392D01*
X003870Y001499D01*
X003817Y001552D01*
X003817Y001184D02*
X003870Y001131D01*
X003870Y001024D01*
X003817Y000970D01*
X003710Y001024D02*
X003710Y001131D01*
X003763Y001184D01*
X003817Y001184D01*
X003710Y001024D02*
X003656Y000970D01*
X003603Y000970D01*
X003550Y001024D01*
X003550Y001131D01*
X003603Y001184D01*
X004550Y001131D02*
X004550Y001024D01*
X004603Y000970D01*
X004656Y000970D01*
X004710Y001024D01*
X004710Y001131D01*
X004763Y001184D01*
X004817Y001184D01*
X004870Y001131D01*
X004870Y001024D01*
X004817Y000970D01*
X004603Y001184D02*
X004550Y001131D01*
X004550Y001339D02*
X004550Y001499D01*
X004603Y001552D01*
X004817Y001552D01*
X004870Y001499D01*
X004870Y001339D01*
X004550Y001339D01*
X004656Y001707D02*
X004550Y001814D01*
X004656Y001921D01*
X004870Y001921D01*
X004710Y001921D02*
X004710Y001707D01*
X004656Y001707D02*
X004870Y001707D01*
X005550Y001707D02*
X005763Y001707D01*
X005870Y001814D01*
X005763Y001921D01*
X005550Y001921D01*
X005550Y001552D02*
X005550Y001339D01*
X005710Y001339D01*
X005656Y001445D01*
X005656Y001499D01*
X005710Y001552D01*
X005817Y001552D01*
X005870Y001499D01*
X005870Y001392D01*
X005817Y001339D01*
X005710Y001184D02*
X005710Y000970D01*
X005603Y001077D02*
X005817Y001077D01*
X006550Y001024D02*
X006603Y000970D01*
X006817Y000970D01*
X006870Y001024D01*
X006870Y001131D01*
X006817Y001184D01*
X006710Y001184D01*
X006710Y001077D01*
X006603Y001184D02*
X006550Y001131D01*
X006550Y001024D01*
X006550Y001339D02*
X006870Y001552D01*
X006550Y001552D01*
X006550Y001707D02*
X006550Y001867D01*
X006603Y001921D01*
X006817Y001921D01*
X006870Y001867D01*
X006870Y001707D01*
X006550Y001707D01*
X006550Y001339D02*
X006870Y001339D01*
X002099Y018970D02*
X001992Y018970D01*
X001939Y019024D01*
X001800Y018970D02*
X001693Y018970D01*
X001747Y018970D02*
X001747Y019291D01*
X001800Y019291D02*
X001693Y019291D01*
X001539Y019184D02*
X001539Y018970D01*
X001539Y019131D02*
X001325Y019131D01*
X001325Y019184D02*
X001325Y018970D01*
X001325Y019184D02*
X001432Y019291D01*
X001539Y019184D01*
X001939Y019237D02*
X001992Y019291D01*
X002099Y019291D01*
X002152Y019237D01*
X002152Y019184D01*
X002099Y019131D01*
X002152Y019077D01*
X002152Y019024D01*
X002099Y018970D01*
X002099Y019131D02*
X002046Y019131D01*
X002099Y023970D02*
X001992Y023970D01*
X001939Y024024D01*
X002152Y024237D01*
X002152Y024024D01*
X002099Y023970D01*
X001939Y024024D02*
X001939Y024237D01*
X001992Y024291D01*
X002099Y024291D01*
X002152Y024237D01*
X001800Y024291D02*
X001693Y024291D01*
X001747Y024291D02*
X001747Y023970D01*
X001800Y023970D02*
X001693Y023970D01*
X001539Y023970D02*
X001539Y024184D01*
X001432Y024291D01*
X001325Y024184D01*
X001325Y023970D01*
X001325Y024131D02*
X001539Y024131D01*
X005550Y024220D02*
X005763Y024220D01*
X005870Y024327D01*
X005763Y024434D01*
X005550Y024434D01*
X005710Y024589D02*
X005710Y024802D01*
X005603Y024695D02*
X005817Y024695D01*
X009675Y024434D02*
X009888Y024434D01*
X009995Y024327D01*
X009888Y024220D01*
X009675Y024220D01*
X009835Y024589D02*
X009835Y024802D01*
X012825Y024184D02*
X012825Y023970D01*
X012825Y024131D02*
X013039Y024131D01*
X013039Y024184D02*
X013039Y023970D01*
X013193Y024024D02*
X013247Y023970D01*
X013353Y023970D01*
X013407Y024024D01*
X013407Y024237D01*
X013353Y024291D01*
X013247Y024291D01*
X013193Y024237D01*
X013193Y024024D01*
X013039Y024184D02*
X012932Y024291D01*
X012825Y024184D01*
X013562Y024237D02*
X013562Y024024D01*
X013775Y024237D01*
X013775Y024024D01*
X013722Y023970D01*
X013615Y023970D01*
X013562Y024024D01*
X013562Y024237D02*
X013615Y024291D01*
X013722Y024291D01*
X013775Y024237D01*
X016325Y024184D02*
X016325Y023970D01*
X016325Y024131D02*
X016539Y024131D01*
X016539Y024184D02*
X016539Y023970D01*
X016693Y023970D02*
X016800Y023970D01*
X016747Y023970D02*
X016747Y024291D01*
X016800Y024291D02*
X016693Y024291D01*
X016539Y024184D02*
X016432Y024291D01*
X016325Y024184D01*
X016939Y024237D02*
X016939Y024024D01*
X017152Y024237D01*
X017152Y024024D01*
X017099Y023970D01*
X016992Y023970D01*
X016939Y024024D01*
X016939Y024237D02*
X016992Y024291D01*
X017099Y024291D01*
X017152Y024237D01*
X020550Y024220D02*
X020763Y024220D01*
X020870Y024327D01*
X020763Y024434D01*
X020550Y024434D01*
X020710Y024589D02*
X020710Y024802D01*
X020603Y024695D02*
X020817Y024695D01*
X024675Y024434D02*
X024888Y024434D01*
X024995Y024327D01*
X024888Y024220D01*
X024675Y024220D01*
X024835Y024589D02*
X024835Y024802D01*
X027825Y024184D02*
X027825Y023970D01*
X027825Y024131D02*
X028039Y024131D01*
X028039Y024184D02*
X028039Y023970D01*
X028193Y024024D02*
X028193Y024237D01*
X028247Y024291D01*
X028353Y024291D01*
X028407Y024237D01*
X028407Y024024D01*
X028353Y023970D01*
X028247Y023970D01*
X028193Y024024D01*
X028039Y024184D02*
X027932Y024291D01*
X027825Y024184D01*
X028562Y024237D02*
X028562Y024024D01*
X028775Y024237D01*
X028775Y024024D01*
X028722Y023970D01*
X028615Y023970D01*
X028562Y024024D01*
X028562Y024237D02*
X028615Y024291D01*
X028722Y024291D01*
X028775Y024237D01*
X028722Y019291D02*
X028615Y019291D01*
X028562Y019237D01*
X028668Y019131D02*
X028722Y019131D01*
X028775Y019077D01*
X028775Y019024D01*
X028722Y018970D01*
X028615Y018970D01*
X028562Y019024D01*
X028407Y019024D02*
X028407Y019237D01*
X028353Y019291D01*
X028247Y019291D01*
X028193Y019237D01*
X028193Y019024D01*
X028247Y018970D01*
X028353Y018970D01*
X028407Y019024D01*
X028722Y019131D02*
X028775Y019184D01*
X028775Y019237D01*
X028722Y019291D01*
X028039Y019184D02*
X028039Y018970D01*
X028039Y019131D02*
X027825Y019131D01*
X027825Y019184D02*
X027825Y018970D01*
X027825Y019184D02*
X027932Y019291D01*
X028039Y019184D01*
X017152Y019184D02*
X017099Y019131D01*
X017152Y019077D01*
X017152Y019024D01*
X017099Y018970D01*
X016992Y018970D01*
X016939Y019024D01*
X016800Y018970D02*
X016693Y018970D01*
X016747Y018970D02*
X016747Y019291D01*
X016800Y019291D02*
X016693Y019291D01*
X016539Y019184D02*
X016539Y018970D01*
X016539Y019131D02*
X016325Y019131D01*
X016325Y019184D02*
X016325Y018970D01*
X016325Y019184D02*
X016432Y019291D01*
X016539Y019184D01*
X016939Y019237D02*
X016992Y019291D01*
X017099Y019291D01*
X017152Y019237D01*
X017152Y019184D01*
X017099Y019131D02*
X017046Y019131D01*
X013775Y019184D02*
X013722Y019131D01*
X013775Y019077D01*
X013775Y019024D01*
X013722Y018970D01*
X013615Y018970D01*
X013562Y019024D01*
X013668Y019131D02*
X013722Y019131D01*
X013775Y019184D02*
X013775Y019237D01*
X013722Y019291D01*
X013615Y019291D01*
X013562Y019237D01*
X013407Y019237D02*
X013353Y019291D01*
X013247Y019291D01*
X013193Y019237D01*
X013193Y019024D01*
X013247Y018970D01*
X013353Y018970D01*
X013407Y019024D01*
X013407Y019237D01*
X013039Y019184D02*
X013039Y018970D01*
X013039Y019131D02*
X012825Y019131D01*
X012825Y019184D02*
X012825Y018970D01*
X012825Y019184D02*
X012932Y019291D01*
X013039Y019184D01*
D12*
X008285Y020180D02*
X007285Y020180D01*
X007285Y023180D01*
X008285Y023180D01*
X008285Y020180D01*
X006803Y018645D02*
X005267Y018645D01*
X005267Y016716D01*
X006803Y016716D01*
X006803Y018645D01*
X005516Y018310D02*
X005518Y018333D01*
X005524Y018355D01*
X005533Y018376D01*
X005545Y018395D01*
X005561Y018412D01*
X005579Y018426D01*
X005599Y018437D01*
X005621Y018445D01*
X005644Y018449D01*
X005666Y018449D01*
X005689Y018445D01*
X005711Y018437D01*
X005731Y018426D01*
X005749Y018412D01*
X005765Y018395D01*
X005777Y018376D01*
X005786Y018355D01*
X005792Y018333D01*
X005794Y018310D01*
X005792Y018287D01*
X005786Y018265D01*
X005777Y018244D01*
X005765Y018225D01*
X005749Y018208D01*
X005731Y018194D01*
X005711Y018183D01*
X005689Y018175D01*
X005666Y018171D01*
X005644Y018171D01*
X005621Y018175D01*
X005599Y018183D01*
X005579Y018194D01*
X005561Y018208D01*
X005545Y018225D01*
X005533Y018244D01*
X005524Y018265D01*
X005518Y018287D01*
X005516Y018310D01*
X007425Y022930D02*
X007427Y022950D01*
X007432Y022970D01*
X007441Y022988D01*
X007454Y023004D01*
X007469Y023018D01*
X007486Y023028D01*
X007505Y023036D01*
X007525Y023040D01*
X007545Y023040D01*
X007565Y023036D01*
X007584Y023028D01*
X007601Y023018D01*
X007616Y023004D01*
X007629Y022988D01*
X007638Y022970D01*
X007643Y022950D01*
X007645Y022930D01*
X007643Y022910D01*
X007638Y022890D01*
X007629Y022872D01*
X007616Y022856D01*
X007601Y022842D01*
X007584Y022832D01*
X007565Y022824D01*
X007545Y022820D01*
X007525Y022820D01*
X007505Y022824D01*
X007486Y022832D01*
X007469Y022842D01*
X007454Y022856D01*
X007441Y022872D01*
X007432Y022890D01*
X007427Y022910D01*
X007425Y022930D01*
X020267Y018645D02*
X020267Y016716D01*
X021803Y016716D01*
X021803Y018645D01*
X020267Y018645D01*
X020516Y018310D02*
X020518Y018333D01*
X020524Y018355D01*
X020533Y018376D01*
X020545Y018395D01*
X020561Y018412D01*
X020579Y018426D01*
X020599Y018437D01*
X020621Y018445D01*
X020644Y018449D01*
X020666Y018449D01*
X020689Y018445D01*
X020711Y018437D01*
X020731Y018426D01*
X020749Y018412D01*
X020765Y018395D01*
X020777Y018376D01*
X020786Y018355D01*
X020792Y018333D01*
X020794Y018310D01*
X020792Y018287D01*
X020786Y018265D01*
X020777Y018244D01*
X020765Y018225D01*
X020749Y018208D01*
X020731Y018194D01*
X020711Y018183D01*
X020689Y018175D01*
X020666Y018171D01*
X020644Y018171D01*
X020621Y018175D01*
X020599Y018183D01*
X020579Y018194D01*
X020561Y018208D01*
X020545Y018225D01*
X020533Y018244D01*
X020524Y018265D01*
X020518Y018287D01*
X020516Y018310D01*
X022285Y020180D02*
X022285Y023180D01*
X023285Y023180D01*
X023285Y020180D01*
X022285Y020180D01*
X022425Y022930D02*
X022427Y022950D01*
X022432Y022970D01*
X022441Y022988D01*
X022454Y023004D01*
X022469Y023018D01*
X022486Y023028D01*
X022505Y023036D01*
X022525Y023040D01*
X022545Y023040D01*
X022565Y023036D01*
X022584Y023028D01*
X022601Y023018D01*
X022616Y023004D01*
X022629Y022988D01*
X022638Y022970D01*
X022643Y022950D01*
X022645Y022930D01*
X022643Y022910D01*
X022638Y022890D01*
X022629Y022872D01*
X022616Y022856D01*
X022601Y022842D01*
X022584Y022832D01*
X022565Y022824D01*
X022545Y022820D01*
X022525Y022820D01*
X022505Y022824D01*
X022486Y022832D01*
X022469Y022842D01*
X022454Y022856D01*
X022441Y022872D01*
X022432Y022890D01*
X022427Y022910D01*
X022425Y022930D01*
X022285Y010680D02*
X023285Y010680D01*
X023285Y007680D01*
X022285Y007680D01*
X022285Y010680D01*
X022425Y010430D02*
X022427Y010450D01*
X022432Y010470D01*
X022441Y010488D01*
X022454Y010504D01*
X022469Y010518D01*
X022486Y010528D01*
X022505Y010536D01*
X022525Y010540D01*
X022545Y010540D01*
X022565Y010536D01*
X022584Y010528D01*
X022601Y010518D01*
X022616Y010504D01*
X022629Y010488D01*
X022638Y010470D01*
X022643Y010450D01*
X022645Y010430D01*
X022643Y010410D01*
X022638Y010390D01*
X022629Y010372D01*
X022616Y010356D01*
X022601Y010342D01*
X022584Y010332D01*
X022565Y010324D01*
X022545Y010320D01*
X022525Y010320D01*
X022505Y010324D01*
X022486Y010332D01*
X022469Y010342D01*
X022454Y010356D01*
X022441Y010372D01*
X022432Y010390D01*
X022427Y010410D01*
X022425Y010430D01*
X021803Y006145D02*
X020267Y006145D01*
X020267Y004216D01*
X021803Y004216D01*
X021803Y006145D01*
X020516Y005810D02*
X020518Y005833D01*
X020524Y005855D01*
X020533Y005876D01*
X020545Y005895D01*
X020561Y005912D01*
X020579Y005926D01*
X020599Y005937D01*
X020621Y005945D01*
X020644Y005949D01*
X020666Y005949D01*
X020689Y005945D01*
X020711Y005937D01*
X020731Y005926D01*
X020749Y005912D01*
X020765Y005895D01*
X020777Y005876D01*
X020786Y005855D01*
X020792Y005833D01*
X020794Y005810D01*
X020792Y005787D01*
X020786Y005765D01*
X020777Y005744D01*
X020765Y005725D01*
X020749Y005708D01*
X020731Y005694D01*
X020711Y005683D01*
X020689Y005675D01*
X020666Y005671D01*
X020644Y005671D01*
X020621Y005675D01*
X020599Y005683D01*
X020579Y005694D01*
X020561Y005708D01*
X020545Y005725D01*
X020533Y005744D01*
X020524Y005765D01*
X020518Y005787D01*
X020516Y005810D01*
X008285Y007680D02*
X007285Y007680D01*
X007285Y010680D01*
X008285Y010680D01*
X008285Y007680D01*
X006803Y006145D02*
X005267Y006145D01*
X005267Y004216D01*
X006803Y004216D01*
X006803Y006145D01*
X005516Y005810D02*
X005518Y005833D01*
X005524Y005855D01*
X005533Y005876D01*
X005545Y005895D01*
X005561Y005912D01*
X005579Y005926D01*
X005599Y005937D01*
X005621Y005945D01*
X005644Y005949D01*
X005666Y005949D01*
X005689Y005945D01*
X005711Y005937D01*
X005731Y005926D01*
X005749Y005912D01*
X005765Y005895D01*
X005777Y005876D01*
X005786Y005855D01*
X005792Y005833D01*
X005794Y005810D01*
X005792Y005787D01*
X005786Y005765D01*
X005777Y005744D01*
X005765Y005725D01*
X005749Y005708D01*
X005731Y005694D01*
X005711Y005683D01*
X005689Y005675D01*
X005666Y005671D01*
X005644Y005671D01*
X005621Y005675D01*
X005599Y005683D01*
X005579Y005694D01*
X005561Y005708D01*
X005545Y005725D01*
X005533Y005744D01*
X005524Y005765D01*
X005518Y005787D01*
X005516Y005810D01*
X007425Y010430D02*
X007427Y010450D01*
X007432Y010470D01*
X007441Y010488D01*
X007454Y010504D01*
X007469Y010518D01*
X007486Y010528D01*
X007505Y010536D01*
X007525Y010540D01*
X007545Y010540D01*
X007565Y010536D01*
X007584Y010528D01*
X007601Y010518D01*
X007616Y010504D01*
X007629Y010488D01*
X007638Y010470D01*
X007643Y010450D01*
X007645Y010430D01*
X007643Y010410D01*
X007638Y010390D01*
X007629Y010372D01*
X007616Y010356D01*
X007601Y010342D01*
X007584Y010332D01*
X007565Y010324D01*
X007545Y010320D01*
X007525Y010320D01*
X007505Y010324D01*
X007486Y010332D01*
X007469Y010342D01*
X007454Y010356D01*
X007441Y010372D01*
X007432Y010390D01*
X007427Y010410D01*
X007425Y010430D01*
D13*
X007535Y011430D02*
X007285Y011680D01*
X007035Y011430D01*
X006535Y011430D01*
X006285Y011680D01*
X006285Y012180D01*
X006535Y012430D01*
X007035Y012430D01*
X007285Y012180D01*
X007535Y012430D01*
X008035Y012430D01*
X008285Y012180D01*
X008535Y012430D01*
X009035Y012430D01*
X009285Y012180D01*
X009285Y011680D01*
X009035Y011430D01*
X008535Y011430D01*
X008285Y011680D01*
X008035Y011430D01*
X007535Y011430D01*
X007285Y011680D02*
X007285Y012180D01*
X008285Y012180D02*
X008285Y011680D01*
X009435Y014530D02*
X009435Y014680D01*
X009285Y014680D01*
X009435Y014680D02*
X009435Y014830D01*
X009435Y014680D02*
X009585Y014680D01*
X007685Y015180D02*
X007687Y015246D01*
X007693Y015311D01*
X007703Y015376D01*
X007716Y015441D01*
X007734Y015504D01*
X007755Y015567D01*
X007780Y015627D01*
X007809Y015687D01*
X007841Y015744D01*
X007876Y015800D01*
X007915Y015853D01*
X007957Y015904D01*
X008001Y015952D01*
X008049Y015997D01*
X008099Y016040D01*
X008152Y016079D01*
X008207Y016116D01*
X008264Y016149D01*
X008323Y016178D01*
X008383Y016204D01*
X008445Y016226D01*
X008508Y016245D01*
X008572Y016259D01*
X008637Y016270D01*
X008703Y016277D01*
X008769Y016280D01*
X008834Y016279D01*
X008900Y016274D01*
X008965Y016265D01*
X009030Y016252D01*
X009093Y016236D01*
X009156Y016216D01*
X009217Y016191D01*
X009277Y016164D01*
X009335Y016133D01*
X009391Y016098D01*
X009445Y016060D01*
X009496Y016019D01*
X009545Y015975D01*
X009591Y015928D01*
X009635Y015879D01*
X009675Y015827D01*
X009712Y015772D01*
X009746Y015716D01*
X009776Y015657D01*
X009803Y015597D01*
X009826Y015536D01*
X009845Y015473D01*
X009861Y015409D01*
X009873Y015344D01*
X009881Y015279D01*
X009885Y015213D01*
X009885Y015147D01*
X009881Y015081D01*
X009873Y015016D01*
X009861Y014951D01*
X009845Y014887D01*
X009826Y014824D01*
X009803Y014763D01*
X009776Y014703D01*
X009746Y014644D01*
X009712Y014588D01*
X009675Y014533D01*
X009635Y014481D01*
X009591Y014432D01*
X009545Y014385D01*
X009496Y014341D01*
X009445Y014300D01*
X009391Y014262D01*
X009335Y014227D01*
X009277Y014196D01*
X009217Y014169D01*
X009156Y014144D01*
X009093Y014124D01*
X009030Y014108D01*
X008965Y014095D01*
X008900Y014086D01*
X008834Y014081D01*
X008769Y014080D01*
X008703Y014083D01*
X008637Y014090D01*
X008572Y014101D01*
X008508Y014115D01*
X008445Y014134D01*
X008383Y014156D01*
X008323Y014182D01*
X008264Y014211D01*
X008207Y014244D01*
X008152Y014281D01*
X008099Y014320D01*
X008049Y014363D01*
X008001Y014408D01*
X007957Y014456D01*
X007915Y014507D01*
X007876Y014560D01*
X007841Y014616D01*
X007809Y014673D01*
X007780Y014733D01*
X007755Y014793D01*
X007734Y014856D01*
X007716Y014919D01*
X007703Y014984D01*
X007693Y015049D01*
X007687Y015114D01*
X007685Y015180D01*
X007285Y015180D02*
X007035Y014930D01*
X006535Y014930D01*
X006285Y015180D01*
X006035Y014930D01*
X005535Y014930D01*
X005285Y015180D01*
X005035Y014930D01*
X004535Y014930D01*
X004285Y015180D01*
X004035Y014930D01*
X003535Y014930D01*
X003285Y015180D01*
X003285Y015680D01*
X003535Y015930D01*
X004035Y015930D01*
X004285Y015680D01*
X004535Y015930D01*
X005035Y015930D01*
X005285Y015680D01*
X005285Y015180D01*
X005285Y015680D02*
X005535Y015930D01*
X006035Y015930D01*
X006285Y015680D01*
X006535Y015930D01*
X007035Y015930D01*
X007285Y015680D01*
X007285Y015180D01*
X006285Y015180D02*
X006285Y015680D01*
X004285Y015680D02*
X004285Y015180D01*
X002035Y011180D02*
X001535Y011180D01*
X001285Y010930D01*
X001285Y010430D01*
X001535Y010180D01*
X002035Y010180D01*
X002285Y010430D01*
X002285Y010930D01*
X002035Y011180D01*
X002035Y010180D02*
X002285Y009930D01*
X002285Y009430D01*
X002035Y009180D01*
X002285Y008930D01*
X002285Y008430D01*
X002035Y008180D01*
X002285Y007930D01*
X002285Y007430D01*
X002035Y007180D01*
X001535Y007180D01*
X001285Y007430D01*
X001285Y007930D01*
X001535Y008180D01*
X001285Y008430D01*
X001285Y008930D01*
X001535Y009180D01*
X002035Y009180D01*
X001535Y009180D02*
X001285Y009430D01*
X001285Y009930D01*
X001535Y010180D01*
X001535Y008180D02*
X002035Y008180D01*
X003535Y003430D02*
X003285Y003180D01*
X003285Y002680D01*
X003535Y002430D01*
X004035Y002430D01*
X004285Y002680D01*
X004535Y002430D01*
X005035Y002430D01*
X005285Y002680D01*
X005285Y003180D01*
X005035Y003430D01*
X004535Y003430D01*
X004285Y003180D01*
X004285Y002680D01*
X004285Y003180D02*
X004035Y003430D01*
X003535Y003430D01*
X005285Y003180D02*
X005535Y003430D01*
X006035Y003430D01*
X006285Y003180D01*
X006535Y003430D01*
X007035Y003430D01*
X007285Y003180D01*
X007285Y002680D01*
X007035Y002430D01*
X006535Y002430D01*
X006285Y002680D01*
X006035Y002430D01*
X005535Y002430D01*
X005285Y002680D01*
X006285Y002680D02*
X006285Y003180D01*
X007685Y002680D02*
X007687Y002746D01*
X007693Y002811D01*
X007703Y002876D01*
X007716Y002941D01*
X007734Y003004D01*
X007755Y003067D01*
X007780Y003127D01*
X007809Y003187D01*
X007841Y003244D01*
X007876Y003300D01*
X007915Y003353D01*
X007957Y003404D01*
X008001Y003452D01*
X008049Y003497D01*
X008099Y003540D01*
X008152Y003579D01*
X008207Y003616D01*
X008264Y003649D01*
X008323Y003678D01*
X008383Y003704D01*
X008445Y003726D01*
X008508Y003745D01*
X008572Y003759D01*
X008637Y003770D01*
X008703Y003777D01*
X008769Y003780D01*
X008834Y003779D01*
X008900Y003774D01*
X008965Y003765D01*
X009030Y003752D01*
X009093Y003736D01*
X009156Y003716D01*
X009217Y003691D01*
X009277Y003664D01*
X009335Y003633D01*
X009391Y003598D01*
X009445Y003560D01*
X009496Y003519D01*
X009545Y003475D01*
X009591Y003428D01*
X009635Y003379D01*
X009675Y003327D01*
X009712Y003272D01*
X009746Y003216D01*
X009776Y003157D01*
X009803Y003097D01*
X009826Y003036D01*
X009845Y002973D01*
X009861Y002909D01*
X009873Y002844D01*
X009881Y002779D01*
X009885Y002713D01*
X009885Y002647D01*
X009881Y002581D01*
X009873Y002516D01*
X009861Y002451D01*
X009845Y002387D01*
X009826Y002324D01*
X009803Y002263D01*
X009776Y002203D01*
X009746Y002144D01*
X009712Y002088D01*
X009675Y002033D01*
X009635Y001981D01*
X009591Y001932D01*
X009545Y001885D01*
X009496Y001841D01*
X009445Y001800D01*
X009391Y001762D01*
X009335Y001727D01*
X009277Y001696D01*
X009217Y001669D01*
X009156Y001644D01*
X009093Y001624D01*
X009030Y001608D01*
X008965Y001595D01*
X008900Y001586D01*
X008834Y001581D01*
X008769Y001580D01*
X008703Y001583D01*
X008637Y001590D01*
X008572Y001601D01*
X008508Y001615D01*
X008445Y001634D01*
X008383Y001656D01*
X008323Y001682D01*
X008264Y001711D01*
X008207Y001744D01*
X008152Y001781D01*
X008099Y001820D01*
X008049Y001863D01*
X008001Y001908D01*
X007957Y001956D01*
X007915Y002007D01*
X007876Y002060D01*
X007841Y002116D01*
X007809Y002173D01*
X007780Y002233D01*
X007755Y002293D01*
X007734Y002356D01*
X007716Y002419D01*
X007703Y002484D01*
X007693Y002549D01*
X007687Y002614D01*
X007685Y002680D01*
X009285Y002180D02*
X009435Y002180D01*
X009435Y002030D01*
X009435Y002180D02*
X009435Y002330D01*
X009435Y002180D02*
X009585Y002180D01*
X013035Y007180D02*
X012785Y007430D01*
X012785Y007930D01*
X013035Y008180D01*
X012785Y008430D01*
X012785Y008930D01*
X013035Y009180D01*
X013535Y009180D01*
X013785Y008930D01*
X013785Y008430D01*
X013535Y008180D01*
X013785Y007930D01*
X013785Y007430D01*
X013535Y007180D01*
X013035Y007180D01*
X013035Y008180D02*
X013535Y008180D01*
X013535Y009180D02*
X013785Y009430D01*
X013785Y009930D01*
X013535Y010180D01*
X013785Y010430D01*
X013785Y010930D01*
X013535Y011180D01*
X013035Y011180D01*
X012785Y010930D01*
X012785Y010430D01*
X013035Y010180D01*
X013535Y010180D01*
X013035Y010180D02*
X012785Y009930D01*
X012785Y009430D01*
X013035Y009180D01*
X016285Y008930D02*
X016285Y008430D01*
X016535Y008180D01*
X017035Y008180D01*
X017285Y008430D01*
X017285Y008930D01*
X017035Y009180D01*
X016535Y009180D01*
X016285Y008930D01*
X016535Y009180D02*
X016285Y009430D01*
X016285Y009930D01*
X016535Y010180D01*
X016285Y010430D01*
X016285Y010930D01*
X016535Y011180D01*
X017035Y011180D01*
X017285Y010930D01*
X017285Y010430D01*
X017035Y010180D01*
X017285Y009930D01*
X017285Y009430D01*
X017035Y009180D01*
X017035Y008180D02*
X017285Y007930D01*
X017285Y007430D01*
X017035Y007180D01*
X016535Y007180D01*
X016285Y007430D01*
X016285Y007930D01*
X016535Y008180D01*
X016535Y010180D02*
X017035Y010180D01*
X021285Y011680D02*
X021535Y011430D01*
X022035Y011430D01*
X022285Y011680D01*
X022535Y011430D01*
X023035Y011430D01*
X023285Y011680D01*
X023535Y011430D01*
X024035Y011430D01*
X024285Y011680D01*
X024285Y012180D01*
X024035Y012430D01*
X023535Y012430D01*
X023285Y012180D01*
X023285Y011680D01*
X023285Y012180D02*
X023035Y012430D01*
X022535Y012430D01*
X022285Y012180D01*
X022285Y011680D01*
X022285Y012180D02*
X022035Y012430D01*
X021535Y012430D01*
X021285Y012180D01*
X021285Y011680D01*
X024285Y014680D02*
X024435Y014680D01*
X024435Y014530D01*
X024435Y014680D02*
X024435Y014830D01*
X024435Y014680D02*
X024585Y014680D01*
X022685Y015180D02*
X022687Y015246D01*
X022693Y015311D01*
X022703Y015376D01*
X022716Y015441D01*
X022734Y015504D01*
X022755Y015567D01*
X022780Y015627D01*
X022809Y015687D01*
X022841Y015744D01*
X022876Y015800D01*
X022915Y015853D01*
X022957Y015904D01*
X023001Y015952D01*
X023049Y015997D01*
X023099Y016040D01*
X023152Y016079D01*
X023207Y016116D01*
X023264Y016149D01*
X023323Y016178D01*
X023383Y016204D01*
X023445Y016226D01*
X023508Y016245D01*
X023572Y016259D01*
X023637Y016270D01*
X023703Y016277D01*
X023769Y016280D01*
X023834Y016279D01*
X023900Y016274D01*
X023965Y016265D01*
X024030Y016252D01*
X024093Y016236D01*
X024156Y016216D01*
X024217Y016191D01*
X024277Y016164D01*
X024335Y016133D01*
X024391Y016098D01*
X024445Y016060D01*
X024496Y016019D01*
X024545Y015975D01*
X024591Y015928D01*
X024635Y015879D01*
X024675Y015827D01*
X024712Y015772D01*
X024746Y015716D01*
X024776Y015657D01*
X024803Y015597D01*
X024826Y015536D01*
X024845Y015473D01*
X024861Y015409D01*
X024873Y015344D01*
X024881Y015279D01*
X024885Y015213D01*
X024885Y015147D01*
X024881Y015081D01*
X024873Y015016D01*
X024861Y014951D01*
X024845Y014887D01*
X024826Y014824D01*
X024803Y014763D01*
X024776Y014703D01*
X024746Y014644D01*
X024712Y014588D01*
X024675Y014533D01*
X024635Y014481D01*
X024591Y014432D01*
X024545Y014385D01*
X024496Y014341D01*
X024445Y014300D01*
X024391Y014262D01*
X024335Y014227D01*
X024277Y014196D01*
X024217Y014169D01*
X024156Y014144D01*
X024093Y014124D01*
X024030Y014108D01*
X023965Y014095D01*
X023900Y014086D01*
X023834Y014081D01*
X023769Y014080D01*
X023703Y014083D01*
X023637Y014090D01*
X023572Y014101D01*
X023508Y014115D01*
X023445Y014134D01*
X023383Y014156D01*
X023323Y014182D01*
X023264Y014211D01*
X023207Y014244D01*
X023152Y014281D01*
X023099Y014320D01*
X023049Y014363D01*
X023001Y014408D01*
X022957Y014456D01*
X022915Y014507D01*
X022876Y014560D01*
X022841Y014616D01*
X022809Y014673D01*
X022780Y014733D01*
X022755Y014793D01*
X022734Y014856D01*
X022716Y014919D01*
X022703Y014984D01*
X022693Y015049D01*
X022687Y015114D01*
X022685Y015180D01*
X022285Y015180D02*
X022285Y015680D01*
X022035Y015930D01*
X021535Y015930D01*
X021285Y015680D01*
X021285Y015180D01*
X021535Y014930D01*
X022035Y014930D01*
X022285Y015180D01*
X021285Y015180D02*
X021035Y014930D01*
X020535Y014930D01*
X020285Y015180D01*
X020035Y014930D01*
X019535Y014930D01*
X019285Y015180D01*
X019035Y014930D01*
X018535Y014930D01*
X018285Y015180D01*
X018285Y015680D01*
X018535Y015930D01*
X019035Y015930D01*
X019285Y015680D01*
X019535Y015930D01*
X020035Y015930D01*
X020285Y015680D01*
X020285Y015180D01*
X020285Y015680D02*
X020535Y015930D01*
X021035Y015930D01*
X021285Y015680D01*
X019285Y015680D02*
X019285Y015180D01*
X017035Y019680D02*
X016535Y019680D01*
X016285Y019930D01*
X016285Y020430D01*
X016535Y020680D01*
X016285Y020930D01*
X016285Y021430D01*
X016535Y021680D01*
X017035Y021680D01*
X017285Y021430D01*
X017285Y020930D01*
X017035Y020680D01*
X017285Y020430D01*
X017285Y019930D01*
X017035Y019680D01*
X017035Y020680D02*
X016535Y020680D01*
X016535Y021680D02*
X016285Y021930D01*
X016285Y022430D01*
X016535Y022680D01*
X016285Y022930D01*
X016285Y023430D01*
X016535Y023680D01*
X017035Y023680D01*
X017285Y023430D01*
X017285Y022930D01*
X017035Y022680D01*
X017285Y022430D01*
X017285Y021930D01*
X017035Y021680D01*
X017035Y022680D02*
X016535Y022680D01*
X013785Y022430D02*
X013785Y021930D01*
X013535Y021680D01*
X013785Y021430D01*
X013785Y020930D01*
X013535Y020680D01*
X013785Y020430D01*
X013785Y019930D01*
X013535Y019680D01*
X013035Y019680D01*
X012785Y019930D01*
X012785Y020430D01*
X013035Y020680D01*
X012785Y020930D01*
X012785Y021430D01*
X013035Y021680D01*
X013535Y021680D01*
X013035Y021680D02*
X012785Y021930D01*
X012785Y022430D01*
X013035Y022680D01*
X012785Y022930D01*
X012785Y023430D01*
X013035Y023680D01*
X013535Y023680D01*
X013785Y023430D01*
X013785Y022930D01*
X013535Y022680D01*
X013785Y022430D01*
X013535Y022680D02*
X013035Y022680D01*
X013035Y020680D02*
X013535Y020680D01*
X009285Y024180D02*
X009035Y023930D01*
X008535Y023930D01*
X008285Y024180D01*
X008035Y023930D01*
X007535Y023930D01*
X007285Y024180D01*
X007035Y023930D01*
X006535Y023930D01*
X006285Y024180D01*
X006285Y024680D01*
X006535Y024930D01*
X007035Y024930D01*
X007285Y024680D01*
X007535Y024930D01*
X008035Y024930D01*
X008285Y024680D01*
X008535Y024930D01*
X009035Y024930D01*
X009285Y024680D01*
X009285Y024180D01*
X008285Y024180D02*
X008285Y024680D01*
X007285Y024680D02*
X007285Y024180D01*
X002285Y023430D02*
X002285Y022930D01*
X002035Y022680D01*
X002285Y022430D01*
X002285Y021930D01*
X002035Y021680D01*
X002285Y021430D01*
X002285Y020930D01*
X002035Y020680D01*
X002285Y020430D01*
X002285Y019930D01*
X002035Y019680D01*
X001535Y019680D01*
X001285Y019930D01*
X001285Y020430D01*
X001535Y020680D01*
X001285Y020930D01*
X001285Y021430D01*
X001535Y021680D01*
X002035Y021680D01*
X001535Y021680D02*
X001285Y021930D01*
X001285Y022430D01*
X001535Y022680D01*
X001285Y022930D01*
X001285Y023430D01*
X001535Y023680D01*
X002035Y023680D01*
X002285Y023430D01*
X002035Y022680D02*
X001535Y022680D01*
X001535Y020680D02*
X002035Y020680D01*
X021285Y024180D02*
X021535Y023930D01*
X022035Y023930D01*
X022285Y024180D01*
X022535Y023930D01*
X023035Y023930D01*
X023285Y024180D01*
X023535Y023930D01*
X024035Y023930D01*
X024285Y024180D01*
X024285Y024680D01*
X024035Y024930D01*
X023535Y024930D01*
X023285Y024680D01*
X023285Y024180D01*
X023285Y024680D02*
X023035Y024930D01*
X022535Y024930D01*
X022285Y024680D01*
X022285Y024180D01*
X022285Y024680D02*
X022035Y024930D01*
X021535Y024930D01*
X021285Y024680D01*
X021285Y024180D01*
X027785Y023430D02*
X027785Y022930D01*
X028035Y022680D01*
X028535Y022680D01*
X028785Y022930D01*
X028785Y023430D01*
X028535Y023680D01*
X028035Y023680D01*
X027785Y023430D01*
X028035Y022680D02*
X027785Y022430D01*
X027785Y021930D01*
X028035Y021680D01*
X028535Y021680D01*
X028785Y021430D01*
X028785Y020930D01*
X028535Y020680D01*
X028785Y020430D01*
X028785Y019930D01*
X028535Y019680D01*
X028035Y019680D01*
X027785Y019930D01*
X027785Y020430D01*
X028035Y020680D01*
X027785Y020930D01*
X027785Y021430D01*
X028035Y021680D01*
X028535Y021680D02*
X028785Y021930D01*
X028785Y022430D01*
X028535Y022680D01*
X028535Y020680D02*
X028035Y020680D01*
X028035Y011180D02*
X028535Y011180D01*
X028785Y010930D01*
X028785Y010430D01*
X028535Y010180D01*
X028785Y009930D01*
X028785Y009430D01*
X028535Y009180D01*
X028785Y008930D01*
X028785Y008430D01*
X028535Y008180D01*
X028785Y007930D01*
X028785Y007430D01*
X028535Y007180D01*
X028035Y007180D01*
X027785Y007430D01*
X027785Y007930D01*
X028035Y008180D01*
X027785Y008430D01*
X027785Y008930D01*
X028035Y009180D01*
X028535Y009180D01*
X028035Y009180D02*
X027785Y009430D01*
X027785Y009930D01*
X028035Y010180D01*
X027785Y010430D01*
X027785Y010930D01*
X028035Y011180D01*
X028035Y010180D02*
X028535Y010180D01*
X028535Y008180D02*
X028035Y008180D01*
X022285Y003180D02*
X022285Y002680D01*
X022035Y002430D01*
X021535Y002430D01*
X021285Y002680D01*
X021035Y002430D01*
X020535Y002430D01*
X020285Y002680D01*
X020035Y002430D01*
X019535Y002430D01*
X019285Y002680D01*
X019035Y002430D01*
X018535Y002430D01*
X018285Y002680D01*
X018285Y003180D01*
X018535Y003430D01*
X019035Y003430D01*
X019285Y003180D01*
X019535Y003430D01*
X020035Y003430D01*
X020285Y003180D01*
X020285Y002680D01*
X020285Y003180D02*
X020535Y003430D01*
X021035Y003430D01*
X021285Y003180D01*
X021535Y003430D01*
X022035Y003430D01*
X022285Y003180D01*
X021285Y003180D02*
X021285Y002680D01*
X019285Y002680D02*
X019285Y003180D01*
X022685Y002680D02*
X022687Y002746D01*
X022693Y002811D01*
X022703Y002876D01*
X022716Y002941D01*
X022734Y003004D01*
X022755Y003067D01*
X022780Y003127D01*
X022809Y003187D01*
X022841Y003244D01*
X022876Y003300D01*
X022915Y003353D01*
X022957Y003404D01*
X023001Y003452D01*
X023049Y003497D01*
X023099Y003540D01*
X023152Y003579D01*
X023207Y003616D01*
X023264Y003649D01*
X023323Y003678D01*
X023383Y003704D01*
X023445Y003726D01*
X023508Y003745D01*
X023572Y003759D01*
X023637Y003770D01*
X023703Y003777D01*
X023769Y003780D01*
X023834Y003779D01*
X023900Y003774D01*
X023965Y003765D01*
X024030Y003752D01*
X024093Y003736D01*
X024156Y003716D01*
X024217Y003691D01*
X024277Y003664D01*
X024335Y003633D01*
X024391Y003598D01*
X024445Y003560D01*
X024496Y003519D01*
X024545Y003475D01*
X024591Y003428D01*
X024635Y003379D01*
X024675Y003327D01*
X024712Y003272D01*
X024746Y003216D01*
X024776Y003157D01*
X024803Y003097D01*
X024826Y003036D01*
X024845Y002973D01*
X024861Y002909D01*
X024873Y002844D01*
X024881Y002779D01*
X024885Y002713D01*
X024885Y002647D01*
X024881Y002581D01*
X024873Y002516D01*
X024861Y002451D01*
X024845Y002387D01*
X024826Y002324D01*
X024803Y002263D01*
X024776Y002203D01*
X024746Y002144D01*
X024712Y002088D01*
X024675Y002033D01*
X024635Y001981D01*
X024591Y001932D01*
X024545Y001885D01*
X024496Y001841D01*
X024445Y001800D01*
X024391Y001762D01*
X024335Y001727D01*
X024277Y001696D01*
X024217Y001669D01*
X024156Y001644D01*
X024093Y001624D01*
X024030Y001608D01*
X023965Y001595D01*
X023900Y001586D01*
X023834Y001581D01*
X023769Y001580D01*
X023703Y001583D01*
X023637Y001590D01*
X023572Y001601D01*
X023508Y001615D01*
X023445Y001634D01*
X023383Y001656D01*
X023323Y001682D01*
X023264Y001711D01*
X023207Y001744D01*
X023152Y001781D01*
X023099Y001820D01*
X023049Y001863D01*
X023001Y001908D01*
X022957Y001956D01*
X022915Y002007D01*
X022876Y002060D01*
X022841Y002116D01*
X022809Y002173D01*
X022780Y002233D01*
X022755Y002293D01*
X022734Y002356D01*
X022716Y002419D01*
X022703Y002484D01*
X022693Y002549D01*
X022687Y002614D01*
X022685Y002680D01*
X024285Y002180D02*
X024435Y002180D01*
X024435Y002030D01*
X024435Y002180D02*
X024435Y002330D01*
X024435Y002180D02*
X024585Y002180D01*
M02*
